# Blender v2.76 (sub 0) OBJ File: 'cubeWall.blend'
# www.blender.org
mtllib cubeWall.mtl
o Cube
v 2.447466 -0.257849 -2.447466
v 2.447466 -0.257849 2.447466
v -2.447466 -0.257849 2.447466
v -2.447465 -0.257849 -2.447467
v 2.447467 4.637083 -2.447465
v 2.447464 4.637083 2.447468
v -2.447467 4.637083 2.447465
v -2.447466 4.637083 -2.447466
vt 0.333134 0.999800
vt 0.333134 0.666867
vt 0.000200 0.666867
vt 0.000200 0.000200
vt 0.333134 0.000200
vt 0.333134 0.333134
vt 0.000200 0.333533
vt 0.333134 0.333533
vt 0.333134 0.666467
vt 0.333533 0.333533
vt 0.666467 0.333533
vt 0.666467 0.666467
vt 0.666866 0.000200
vt 0.666866 0.333133
vt 0.999800 0.333134
vt 0.666467 0.333134
vt 0.666467 0.000200
vt 0.333533 0.000200
vt 0.000200 0.999800
vt 0.000200 0.333134
vt 0.000200 0.666467
vt 0.333533 0.666467
vt 0.999800 0.000200
vt 0.333533 0.333134
vn 0.577300 -0.577300 0.577300
vn -0.577300 -0.577300 0.577300
vn -0.577300 -0.577300 -0.577300
vn -0.577300 0.577300 -0.577300
vn -0.577300 0.577300 0.577300
vn 0.577300 0.577300 0.577300
vn 0.577300 0.577300 -0.577300
vn 0.577300 -0.577300 -0.577300
usemtl Material
s 1
f 2/1/1 3/2/2 4/3/3
f 8/4/4 7/5/5 6/6/6
f 5/7/7 6/8/6 2/9/1
f 6/10/6 7/11/5 3/12/2
f 7/13/5 8/14/4 4/15/3
f 1/16/8 4/17/3 8/18/4
f 1/19/8 2/1/1 4/3/3
f 5/20/7 8/4/4 6/6/6
f 1/21/8 5/7/7 2/9/1
f 2/22/1 6/10/6 3/12/2
f 3/23/2 7/13/5 4/15/3
f 5/24/7 1/16/8 8/18/4
