# Blender v2.76 (sub 0) OBJ File: 'rock.blend'
# www.blender.org
mtllib rock.mtl
o Icosphere
v -0.097503 2.072280 0.399021
v -1.910815 1.149528 -1.725296
v 0.177878 1.041701 -2.085568
v 2.493133 0.960522 0.471999
v 0.959466 1.314656 2.353523
v -1.273467 0.628758 0.987242
v -0.249470 -0.417807 -1.617731
v 1.517745 -0.904060 -0.997743
v 1.669030 -1.314490 0.919992
v -0.546193 -0.837366 1.821058
v -1.972413 -0.801165 -0.712071
v -0.052326 -1.918225 -0.020474
v 0.336441 1.718624 -0.991849
v -0.940769 1.697172 -0.705683
v -0.408355 1.216379 -1.340747
v -2.062012 1.899358 -0.378853
v -0.886806 2.022496 0.153227
v 0.768397 1.743244 -0.008439
v 1.722534 0.902457 -0.855932
v 0.649489 1.766818 0.771010
v 1.488515 0.955175 1.069619
v -0.239555 1.900409 2.270887
v -2.143313 0.125824 -0.533166
v -2.621821 0.778098 0.705936
v -0.519164 -0.119903 -2.585794
v -1.137598 -0.098296 -1.677195
v 2.225744 -0.046576 -0.623630
v 1.627319 -0.384260 -1.836916
v 1.594103 -0.209522 1.579835
v 1.945911 0.087227 0.462206
v -1.398519 0.149923 1.742301
v 0.293693 0.070205 1.638782
v -1.665493 -0.537517 -0.902121
v 0.116581 -1.306002 -1.229686
v 2.093910 -0.846455 -0.118113
v 0.438038 -1.187642 1.865302
v -1.648039 -0.807312 1.062894
v 0.079239 -1.542962 -1.073095
v -1.017022 -1.505611 -0.282316
v 0.853285 -1.704637 -0.619011
v 0.406513 -2.099402 1.080447
v -0.332154 -1.704448 0.992030
vt 0.220760 0.258511
vt 0.240214 0.133856
vt 0.110466 0.197092
vt 0.227163 0.000383
vt 0.332850 0.105998
vt 0.132266 0.300720
vt 0.196152 0.359700
vt 0.294672 0.211580
vt 0.719483 0.000383
vt 0.876115 0.066337
vt 0.711618 0.173486
vt 0.438038 0.905005
vt 0.333616 0.909639
vt 0.438038 0.999617
vt 0.030161 0.587145
vt 0.000383 0.730667
vt 0.108124 0.731553
vt 0.947876 0.241802
vt 0.876881 0.290180
vt 0.947876 0.402355
vt 0.677578 0.893349
vt 0.766630 0.756420
vt 0.766630 0.935669
vt 0.645769 0.064818
vt 0.793939 0.467108
vt 0.930471 0.406476
vt 0.930471 0.644969
vt 0.123246 0.611857
vt 0.333616 0.528429
vt 0.442432 0.640716
vt 0.475923 0.535708
vt 0.907229 0.745019
vt 0.972707 0.798271
vt 0.972707 0.645735
vt 0.787593 0.608599
vt 0.733438 0.755655
vt 0.677578 0.540733
vt 0.787593 0.406476
vt 0.703865 0.543695
vt 0.683033 0.453703
vt 0.522352 0.000383
vt 0.645004 0.016417
vt 0.456617 0.079892
vt 0.333616 0.130672
vt 0.383164 0.033982
vt 0.424719 0.155476
vt 0.498305 0.405710
vt 0.371712 0.263856
vt 0.509352 0.290715
vt 0.536991 0.184005
vt 0.676812 0.587722
vt 0.582110 0.626362
vt 0.667463 0.679617
vt 0.538907 0.715606
vt 0.643811 0.129972
vt 0.207325 0.699191
vt 0.189646 0.794780
vt 0.285487 0.775990
vt 0.645004 0.228927
vt 0.533281 0.386699
vt 0.330553 0.828366
vt 0.286252 0.823047
vt 0.330553 0.699871
vt 0.828847 0.235590
vt 0.746812 0.349791
vt 0.650335 0.196401
vt 0.876115 0.343724
vt 0.573876 0.406476
vt 0.610666 0.514752
vt 0.676812 0.442588
vt 0.285487 0.600906
vt 0.906463 0.664810
vt 0.788358 0.800051
vt 0.815107 0.645735
vt 0.906463 0.915507
vt 0.331806 0.699106
vt 0.286252 0.597123
vt 0.331806 0.500430
vt 0.907229 0.889544
vt 0.957256 0.799036
vt 0.957256 0.973997
vt 0.660312 0.161977
vt 0.354907 0.413159
vt 0.185253 0.500430
vt 0.052502 0.501414
vt 0.139788 0.925486
vt 0.233352 0.984810
vt 0.233352 0.871162
vt 0.111342 0.870397
vt 0.788358 0.638046
vt 0.326704 0.981982
vt 0.234118 0.903763
vt 0.326704 0.871162
vt 0.665436 0.716371
vt 0.665436 0.917781
vt 0.593752 0.786418
vt 0.000383 0.890701
vt 0.139023 0.871162
vt 0.139023 0.981609
vt 0.503337 0.860998
vt 0.592986 0.751553
vt 0.481223 0.716371
vt 0.480458 0.904240
vt 0.333616 0.787905
vt 0.480458 0.716371
vt 0.332850 0.413350
vt 0.264187 0.499664
vt 0.925879 0.081235
vt 0.876881 0.170467
vt 0.925879 0.241036
vt 0.896589 0.000383
vt 0.054738 0.448190
vt 0.196590 0.448280
vt 0.000383 0.304192
vt 0.048862 0.091937
vt 0.592986 0.924080
vt 0.150633 0.115774
vn 0.069000 -0.906500 -0.416500
vn -0.006700 -0.891800 0.452300
vn -0.177700 -0.889000 0.422000
vn 0.515800 -0.299100 0.802800
vn 0.596300 -0.802400 0.022500
vn -0.439700 -0.895300 0.071800
vn -0.461900 -0.881600 -0.096600
vn 0.245700 -0.963700 -0.104500
vn 0.899500 0.111700 0.422300
vn -0.035700 -0.632000 0.774100
vn 0.219900 -0.699300 0.680100
vn 0.411300 0.200400 0.889200
vn -0.884000 -0.338200 -0.322600
vn -0.647100 -0.591800 0.480600
vn -0.959700 0.079300 0.269400
vn -0.443000 -0.292300 -0.847500
vn -0.751900 -0.514300 -0.412500
vn -0.698500 0.093500 -0.709400
vn 0.503500 -0.700000 -0.506400
vn 0.222500 -0.626500 -0.747000
vn 0.507800 -0.073700 -0.858300
vn 0.521900 0.399000 0.753900
vn -0.640500 0.255000 0.724300
vn -0.893900 0.169800 -0.414900
vn 0.004600 0.132800 -0.991100
vn 0.866100 -0.287100 -0.409200
vn 0.685000 0.651800 0.325300
vn 0.491100 0.376400 0.785500
vn 0.073800 0.743400 0.664700
vn -0.585100 0.677600 0.445600
vn 0.045300 0.639500 0.767400
vn -0.358800 0.844000 0.398600
vn -0.742800 0.594600 -0.307800
vn -0.894800 0.444500 0.041900
vn -0.050900 0.930100 -0.363600
vn 0.240900 0.319400 -0.916500
vn -0.096900 0.360900 -0.927500
vn 0.455300 0.804400 -0.381600
vn 0.667600 0.526800 0.526100
vn 0.677000 0.588000 -0.442600
vn 0.488400 0.845400 0.215900
vn 0.197800 0.967000 0.160600
usemtl Material.001
s 1
f 1/1/1 14/2/2 13/3/3
f 2/4/4 14/2/2 16/5/5
f 1/1/1 13/3/3 18/6/6
f 1/1/1 18/6/6 20/7/7
f 1/1/1 20/7/7 17/8/8
f 2/9/4 16/10/5 23/11/9
f 3/12/10 15/13/11 25/14/12
f 4/15/13 19/16/14 27/17/15
f 5/18/16 21/19/17 29/20/18
f 6/21/19 22/22/20 31/23/21
f 2/9/4 23/11/9 26/24/22
f 3/25/10 25/26/12 28/27/23
f 4/15/13 27/17/15 30/28/24
f 5/29/16 29/30/18 32/31/25
f 6/32/19 31/33/21 24/34/26
f 7/35/27 33/36/28 38/37/29
f 8/38/30 34/39/31 40/40/32
f 9/41/33 35/42/34 41/43/35
f 10/44/36 36/45/37 42/46/38
f 11/47/39 37/48/40 39/49/41
f 39/49/41 42/46/38 12/50/42
f 39/49/41 37/48/40 42/46/38
f 37/48/40 10/44/36 42/46/38
f 42/46/38 41/43/35 12/50/42
f 42/51/38 36/52/37 41/53/35
f 36/52/37 9/54/33 41/53/35
f 41/43/35 40/55/32 12/50/42
f 41/43/35 35/42/34 40/55/32
f 35/56/34 8/57/30 40/58/32
f 40/55/32 38/59/29 12/50/42
f 40/40/32 34/39/31 38/37/29
f 34/39/31 7/35/27 38/37/29
f 38/59/29 39/49/41 12/50/42
f 38/59/29 33/60/28 39/49/41
f 33/61/28 11/62/39 39/63/41
f 24/64/26 37/65/40 11/66/39
f 24/64/26 31/67/21 37/65/40
f 31/68/21 10/69/36 37/70/40
f 32/31/25 36/52/37 10/69/36
f 32/31/25 29/30/18 36/52/37
f 29/30/18 9/54/33 36/52/37
f 30/28/24 35/56/34 9/71/33
f 30/28/24 27/17/15 35/56/34
f 27/17/15 8/57/30 35/56/34
f 28/72/23 34/73/31 8/74/30
f 28/72/23 25/75/12 34/73/31
f 25/76/12 7/77/27 34/78/31
f 26/79/22 33/80/28 7/81/27
f 26/24/22 23/11/9 33/82/28
f 23/11/9 11/66/39 33/82/28
f 31/68/21 32/31/25 10/69/36
f 31/68/21 22/83/20 32/31/25
f 22/83/20 5/29/16 32/31/25
f 29/84/18 30/28/24 9/71/33
f 29/84/18 21/85/17 30/28/24
f 21/86/17 4/87/13 30/88/24
f 27/17/15 28/89/23 8/57/30
f 27/17/15 19/16/14 28/89/23
f 19/90/14 3/25/10 28/27/23
f 25/91/12 26/92/22 7/93/27
f 25/94/12 15/95/11 26/96/22
f 15/97/11 2/98/4 26/99/22
f 23/11/9 24/64/26 11/66/39
f 23/11/9 16/10/5 24/64/26
f 16/100/5 6/101/19 24/102/26
f 17/103/8 22/104/20 6/105/19
f 17/8/8 20/7/7 22/106/20
f 20/7/7 5/107/16 22/106/20
f 20/108/7 21/109/17 5/110/16
f 20/108/7 18/111/6 21/109/17
f 18/6/6 4/112/13 21/113/17
f 18/6/6 19/114/14 4/112/13
f 18/6/6 13/3/3 19/114/14
f 13/3/3 3/115/10 19/114/14
f 16/100/5 17/116/8 6/101/19
f 16/5/5 14/2/2 17/8/8
f 14/2/2 1/1/1 17/8/8
f 13/3/3 15/117/11 3/115/10
f 13/3/3 14/2/2 15/117/11
f 14/2/2 2/4/4 15/117/11
